<svg xmlns="http://www.w3.org/2000/svg" xmlns:xlink="http://www.w3.org/1999/xlink" width="1080" zoomAndPan="magnify" viewBox="0 0 810 809.999993" height="1080" preserveAspectRatio="xMidYMid meet" version="1.0"><defs><g/><clipPath id="b4ca2440bd"><path d="M 145.613281 143.726562 L 361 143.726562 L 361 261.636719 L 145.613281 261.636719 Z M 145.613281 143.726562 " clip-rule="nonzero"/></clipPath><clipPath id="d31b8a9262"><path d="M 183.863281 143.726562 L 322.558594 143.726562 C 332.703125 143.726562 342.433594 147.757812 349.605469 154.929688 C 356.78125 162.105469 360.808594 171.832031 360.808594 181.976562 L 360.808594 223.386719 C 360.808594 233.53125 356.78125 243.261719 349.605469 250.433594 C 342.433594 257.605469 332.703125 261.636719 322.558594 261.636719 L 183.863281 261.636719 C 173.71875 261.636719 163.992188 257.605469 156.820312 250.433594 C 149.644531 243.261719 145.613281 233.53125 145.613281 223.386719 L 145.613281 181.976562 C 145.613281 171.832031 149.644531 162.105469 156.820312 154.929688 C 163.992188 147.757812 173.71875 143.726562 183.863281 143.726562 Z M 183.863281 143.726562 " clip-rule="nonzero"/></clipPath><clipPath id="b8d2266986"><path d="M 446.03125 143.726562 L 661.585938 143.726562 L 661.585938 261.636719 L 446.03125 261.636719 Z M 446.03125 143.726562 " clip-rule="nonzero"/></clipPath><clipPath id="66f337cd65"><path d="M 484.28125 143.726562 L 622.976562 143.726562 C 633.121094 143.726562 642.851562 147.757812 650.023438 154.929688 C 657.195312 162.105469 661.226562 171.832031 661.226562 181.976562 L 661.226562 223.386719 C 661.226562 233.53125 657.195312 243.261719 650.023438 250.433594 C 642.851562 257.605469 633.121094 261.636719 622.976562 261.636719 L 484.28125 261.636719 C 474.136719 261.636719 464.410156 257.605469 457.234375 250.433594 C 450.0625 243.261719 446.03125 233.53125 446.03125 223.386719 L 446.03125 181.976562 C 446.03125 171.832031 450.0625 162.105469 457.234375 154.929688 C 464.410156 147.757812 474.136719 143.726562 484.28125 143.726562 Z M 484.28125 143.726562 " clip-rule="nonzero"/></clipPath><clipPath id="3ded545888"><path d="M 154.308594 467.375 L 369.863281 467.375 L 369.863281 585.285156 L 154.308594 585.285156 Z M 154.308594 467.375 " clip-rule="nonzero"/></clipPath><clipPath id="b48921e36b"><path d="M 192.558594 467.375 L 331.253906 467.375 C 341.398438 467.375 351.128906 471.40625 358.300781 478.578125 C 365.476562 485.753906 369.503906 495.480469 369.503906 505.625 L 369.503906 547.035156 C 369.503906 557.179688 365.476562 566.910156 358.300781 574.082031 C 351.128906 581.257812 341.398438 585.285156 331.253906 585.285156 L 192.558594 585.285156 C 182.414062 585.285156 172.6875 581.257812 165.511719 574.082031 C 158.339844 566.910156 154.308594 557.179688 154.308594 547.035156 L 154.308594 505.625 C 154.308594 495.480469 158.339844 485.753906 165.511719 478.578125 C 172.6875 471.40625 182.414062 467.375 192.558594 467.375 Z M 192.558594 467.375 " clip-rule="nonzero"/></clipPath><clipPath id="fcf5b74dbe"><path d="M 454.726562 467.375 L 670 467.375 L 670 585.285156 L 454.726562 585.285156 Z M 454.726562 467.375 " clip-rule="nonzero"/></clipPath><clipPath id="b3fff064f0"><path d="M 492.976562 467.375 L 631.671875 467.375 C 641.816406 467.375 651.546875 471.40625 658.71875 478.578125 C 665.890625 485.753906 669.921875 495.480469 669.921875 505.625 L 669.921875 547.035156 C 669.921875 557.179688 665.890625 566.910156 658.71875 574.082031 C 651.546875 581.257812 641.816406 585.285156 631.671875 585.285156 L 492.976562 585.285156 C 482.832031 585.285156 473.101562 581.257812 465.929688 574.082031 C 458.757812 566.910156 454.726562 557.179688 454.726562 547.035156 L 454.726562 505.625 C 454.726562 495.480469 458.757812 485.753906 465.929688 478.578125 C 473.101562 471.40625 482.832031 467.375 492.976562 467.375 Z M 492.976562 467.375 " clip-rule="nonzero"/></clipPath><clipPath id="efdb7b7769"><path d="M 145.613281 296.269531 L 361 296.269531 L 361 414.179688 L 145.613281 414.179688 Z M 145.613281 296.269531 " clip-rule="nonzero"/></clipPath><clipPath id="1f5be41e83"><path d="M 183.863281 296.269531 L 322.558594 296.269531 C 332.703125 296.269531 342.433594 300.300781 349.605469 307.472656 C 356.78125 314.648438 360.808594 324.375 360.808594 334.519531 L 360.808594 375.929688 C 360.808594 386.074219 356.78125 395.804688 349.605469 402.976562 C 342.433594 410.152344 332.703125 414.179688 322.558594 414.179688 L 183.863281 414.179688 C 173.71875 414.179688 163.992188 410.152344 156.820312 402.976562 C 149.644531 395.804688 145.613281 386.074219 145.613281 375.929688 L 145.613281 334.519531 C 145.613281 324.375 149.644531 314.648438 156.820312 307.472656 C 163.992188 300.300781 173.71875 296.269531 183.863281 296.269531 Z M 183.863281 296.269531 " clip-rule="nonzero"/></clipPath><clipPath id="3e6169edd7"><path d="M 446.03125 296.269531 L 661.585938 296.269531 L 661.585938 414.179688 L 446.03125 414.179688 Z M 446.03125 296.269531 " clip-rule="nonzero"/></clipPath><clipPath id="f03cb855dd"><path d="M 484.28125 296.269531 L 622.976562 296.269531 C 633.121094 296.269531 642.851562 300.300781 650.023438 307.472656 C 657.195312 314.648438 661.226562 324.375 661.226562 334.519531 L 661.226562 375.929688 C 661.226562 386.074219 657.195312 395.804688 650.023438 402.976562 C 642.851562 410.152344 633.121094 414.179688 622.976562 414.179688 L 484.28125 414.179688 C 474.136719 414.179688 464.410156 410.152344 457.234375 402.976562 C 450.0625 395.804688 446.03125 386.074219 446.03125 375.929688 L 446.03125 334.519531 C 446.03125 324.375 450.0625 314.648438 457.234375 307.472656 C 464.410156 300.300781 474.136719 296.269531 484.28125 296.269531 Z M 484.28125 296.269531 " clip-rule="nonzero"/></clipPath><clipPath id="60a9026be9"><path d="M 6.558594 381.765625 L 155.789062 381.765625 L 155.789062 499.675781 L 6.558594 499.675781 Z M 6.558594 381.765625 " clip-rule="nonzero"/></clipPath><clipPath id="8eaf2abb9b"><path d="M 44.808594 381.765625 L 117.191406 381.765625 C 127.335938 381.765625 137.0625 385.796875 144.238281 392.96875 C 151.410156 400.144531 155.441406 409.871094 155.441406 420.015625 L 155.441406 461.425781 C 155.441406 471.570312 151.410156 481.300781 144.238281 488.472656 C 137.0625 495.648438 127.335938 499.675781 117.191406 499.675781 L 44.808594 499.675781 C 34.664062 499.675781 24.9375 495.648438 17.761719 488.472656 C 10.589844 481.300781 6.558594 471.570312 6.558594 461.425781 L 6.558594 420.015625 C 6.558594 409.871094 10.589844 400.144531 17.761719 392.96875 C 24.9375 385.796875 34.664062 381.765625 44.808594 381.765625 Z M 44.808594 381.765625 " clip-rule="nonzero"/></clipPath><clipPath id="0c993c8d13"><path d="M 246.097656 622.417969 L 564 622.417969 L 564 740.328125 L 246.097656 740.328125 Z M 246.097656 622.417969 " clip-rule="nonzero"/></clipPath><clipPath id="11cfc71360"><path d="M 284.347656 622.417969 L 525.652344 622.417969 C 535.796875 622.417969 545.527344 626.445312 552.699219 633.621094 C 559.871094 640.792969 563.902344 650.523438 563.902344 660.667969 L 563.902344 702.078125 C 563.902344 712.222656 559.871094 721.949219 552.699219 729.125 C 545.527344 736.296875 535.796875 740.328125 525.652344 740.328125 L 284.347656 740.328125 C 274.203125 740.328125 264.472656 736.296875 257.300781 729.125 C 250.128906 721.949219 246.097656 712.222656 246.097656 702.078125 L 246.097656 660.667969 C 246.097656 650.523438 250.128906 640.792969 257.300781 633.621094 C 264.472656 626.445312 274.203125 622.417969 284.347656 622.417969 Z M 284.347656 622.417969 " clip-rule="nonzero"/></clipPath><clipPath id="50a1bd1bdf"><path d="M 246.097656 84.773438 L 564 84.773438 L 564 143.726562 L 246.097656 143.726562 Z M 246.097656 84.773438 " clip-rule="nonzero"/></clipPath><clipPath id="7a0f35ec07"><path d="M 275.574219 84.773438 L 534.425781 84.773438 C 550.707031 84.773438 563.902344 97.96875 563.902344 114.25 C 563.902344 130.53125 550.707031 143.726562 534.425781 143.726562 L 275.574219 143.726562 C 259.292969 143.726562 246.097656 130.53125 246.097656 114.25 C 246.097656 97.96875 259.292969 84.773438 275.574219 84.773438 Z M 275.574219 84.773438 " clip-rule="nonzero"/></clipPath><clipPath id="f0181827ee"><path d="M 145.613281 261.636719 L 810 261.636719 L 810 298.449219 L 145.613281 298.449219 Z M 145.613281 261.636719 " clip-rule="nonzero"/></clipPath><clipPath id="e9d40553f4"><path d="M 378.695312 143.726562 L 424.980469 143.726562 L 424.980469 622.414062 L 378.695312 622.414062 Z M 378.695312 143.726562 " clip-rule="nonzero"/></clipPath><clipPath id="4b5e781a0f"><path d="M 155.441406 422.316406 L 810 422.316406 L 810 459.125 L 155.441406 459.125 Z M 155.441406 422.316406 " clip-rule="nonzero"/></clipPath></defs><g clip-path="url(#b4ca2440bd)"><g clip-path="url(#d31b8a9262)"><path fill="#efff97" d="M 145.613281 143.726562 L 360.707031 143.726562 L 360.707031 261.636719 L 145.613281 261.636719 Z M 145.613281 143.726562 " fill-opacity="1" fill-rule="nonzero"/></g></g><g fill="#000000" fill-opacity="1"><g transform="translate(235.732389, 208.977489)"><g><path d="M 0.96875 0 L 0.96875 -1.3125 L 4.671875 -1.3125 L 4.671875 -11.6875 L 4.453125 -11.75 C 3.847656 -11.445312 3.320312 -11.21875 2.875 -11.0625 C 2.425781 -10.90625 1.847656 -10.753906 1.140625 -10.609375 L 1.140625 -12.0625 C 1.835938 -12.21875 2.523438 -12.421875 3.203125 -12.671875 C 3.890625 -12.921875 4.515625 -13.21875 5.078125 -13.5625 L 6.21875 -13.5625 L 6.21875 -1.3125 L 9.53125 -1.3125 L 9.53125 0 Z M 0.96875 0 "/></g></g></g><g fill="#000000" fill-opacity="1"><g transform="translate(245.842614, 208.977489)"><g><path d="M 6.671875 0.1875 C 5.671875 0.1875 4.773438 -0.0507812 3.984375 -0.53125 C 3.191406 -1.007812 2.5625 -1.769531 2.09375 -2.8125 C 1.625 -3.851562 1.390625 -5.175781 1.390625 -6.78125 C 1.390625 -8.382812 1.625 -9.707031 2.09375 -10.75 C 2.5625 -11.800781 3.191406 -12.566406 3.984375 -13.046875 C 4.773438 -13.523438 5.671875 -13.765625 6.671875 -13.765625 C 7.671875 -13.765625 8.566406 -13.523438 9.359375 -13.046875 C 10.148438 -12.566406 10.773438 -11.800781 11.234375 -10.75 C 11.703125 -9.707031 11.9375 -8.382812 11.9375 -6.78125 C 11.9375 -5.175781 11.703125 -3.851562 11.234375 -2.8125 C 10.773438 -1.769531 10.148438 -1.007812 9.359375 -0.53125 C 8.566406 -0.0507812 7.671875 0.1875 6.671875 0.1875 Z M 6.671875 -1.28125 C 7.847656 -1.28125 8.738281 -1.703125 9.34375 -2.546875 C 9.957031 -3.398438 10.265625 -4.8125 10.265625 -6.78125 C 10.265625 -8.75 9.957031 -10.15625 9.34375 -11 C 8.738281 -11.851562 7.847656 -12.28125 6.671875 -12.28125 C 5.890625 -12.28125 5.234375 -12.097656 4.703125 -11.734375 C 4.171875 -11.378906 3.765625 -10.796875 3.484375 -9.984375 C 3.203125 -9.179688 3.0625 -8.113281 3.0625 -6.78125 C 3.0625 -5.445312 3.203125 -4.375 3.484375 -3.5625 C 3.765625 -2.757812 4.171875 -2.175781 4.703125 -1.8125 C 5.234375 -1.457031 5.890625 -1.28125 6.671875 -1.28125 Z M 6.671875 -1.28125 "/></g></g></g><g fill="#000000" fill-opacity="1"><g transform="translate(259.18069, 208.977489)"><g><path d="M 8.484375 0 L 6.984375 0 L 6.984375 -3.234375 L 0.625 -3.234375 L 0.625 -4.515625 L 6.609375 -13.5625 L 8.484375 -13.5625 L 8.484375 -4.515625 L 10.84375 -4.515625 L 10.84375 -3.234375 L 8.484375 -3.234375 Z M 2.5 -4.71875 L 2.578125 -4.515625 L 6.984375 -4.515625 L 6.984375 -11.359375 L 6.765625 -11.390625 Z M 2.5 -4.71875 "/></g></g></g><g clip-path="url(#b8d2266986)"><g clip-path="url(#66f337cd65)"><path fill="#efff97" d="M 446.03125 143.726562 L 661.125 143.726562 L 661.125 261.636719 L 446.03125 261.636719 Z M 446.03125 143.726562 " fill-opacity="1" fill-rule="nonzero"/></g></g><g fill="#000000" fill-opacity="1"><g transform="translate(536.289773, 208.977489)"><g><path d="M 0.96875 0 L 0.96875 -1.3125 L 4.671875 -1.3125 L 4.671875 -11.6875 L 4.453125 -11.75 C 3.847656 -11.445312 3.320312 -11.21875 2.875 -11.0625 C 2.425781 -10.90625 1.847656 -10.753906 1.140625 -10.609375 L 1.140625 -12.0625 C 1.835938 -12.21875 2.523438 -12.421875 3.203125 -12.671875 C 3.890625 -12.921875 4.515625 -13.21875 5.078125 -13.5625 L 6.21875 -13.5625 L 6.21875 -1.3125 L 9.53125 -1.3125 L 9.53125 0 Z M 0.96875 0 "/></g></g></g><g fill="#000000" fill-opacity="1"><g transform="translate(546.399998, 208.977489)"><g><path d="M 6.671875 0.1875 C 5.671875 0.1875 4.773438 -0.0507812 3.984375 -0.53125 C 3.191406 -1.007812 2.5625 -1.769531 2.09375 -2.8125 C 1.625 -3.851562 1.390625 -5.175781 1.390625 -6.78125 C 1.390625 -8.382812 1.625 -9.707031 2.09375 -10.75 C 2.5625 -11.800781 3.191406 -12.566406 3.984375 -13.046875 C 4.773438 -13.523438 5.671875 -13.765625 6.671875 -13.765625 C 7.671875 -13.765625 8.566406 -13.523438 9.359375 -13.046875 C 10.148438 -12.566406 10.773438 -11.800781 11.234375 -10.75 C 11.703125 -9.707031 11.9375 -8.382812 11.9375 -6.78125 C 11.9375 -5.175781 11.703125 -3.851562 11.234375 -2.8125 C 10.773438 -1.769531 10.148438 -1.007812 9.359375 -0.53125 C 8.566406 -0.0507812 7.671875 0.1875 6.671875 0.1875 Z M 6.671875 -1.28125 C 7.847656 -1.28125 8.738281 -1.703125 9.34375 -2.546875 C 9.957031 -3.398438 10.265625 -4.8125 10.265625 -6.78125 C 10.265625 -8.75 9.957031 -10.15625 9.34375 -11 C 8.738281 -11.851562 7.847656 -12.28125 6.671875 -12.28125 C 5.890625 -12.28125 5.234375 -12.097656 4.703125 -11.734375 C 4.171875 -11.378906 3.765625 -10.796875 3.484375 -9.984375 C 3.203125 -9.179688 3.0625 -8.113281 3.0625 -6.78125 C 3.0625 -5.445312 3.203125 -4.375 3.484375 -3.5625 C 3.765625 -2.757812 4.171875 -2.175781 4.703125 -1.8125 C 5.234375 -1.457031 5.890625 -1.28125 6.671875 -1.28125 Z M 6.671875 -1.28125 "/></g></g></g><g fill="#000000" fill-opacity="1"><g transform="translate(559.738075, 208.977489)"><g><path d="M 5.578125 0.1875 C 4.316406 0.1875 3.304688 -0.09375 2.546875 -0.65625 C 1.785156 -1.21875 1.289062 -2.015625 1.0625 -3.046875 L 2.25 -3.578125 L 2.453125 -3.546875 C 2.609375 -3.015625 2.8125 -2.582031 3.0625 -2.25 C 3.3125 -1.914062 3.640625 -1.664062 4.046875 -1.5 C 4.460938 -1.332031 4.972656 -1.25 5.578125 -1.25 C 6.492188 -1.25 7.207031 -1.519531 7.71875 -2.0625 C 8.226562 -2.613281 8.484375 -3.410156 8.484375 -4.453125 C 8.484375 -5.515625 8.234375 -6.320312 7.734375 -6.875 C 7.234375 -7.425781 6.539062 -7.703125 5.65625 -7.703125 C 4.976562 -7.703125 4.429688 -7.566406 4.015625 -7.296875 C 3.597656 -7.023438 3.226562 -6.609375 2.90625 -6.046875 L 1.625 -6.15625 L 1.890625 -13.5625 L 9.484375 -13.5625 L 9.484375 -12.203125 L 3.28125 -12.203125 L 3.125 -7.703125 L 3.3125 -7.671875 C 3.632812 -8.140625 4.023438 -8.488281 4.484375 -8.71875 C 4.941406 -8.957031 5.492188 -9.078125 6.140625 -9.078125 C 6.953125 -9.078125 7.660156 -8.894531 8.265625 -8.53125 C 8.867188 -8.164062 9.332031 -7.632812 9.65625 -6.9375 C 9.988281 -6.25 10.15625 -5.421875 10.15625 -4.453125 C 10.15625 -3.484375 9.960938 -2.648438 9.578125 -1.953125 C 9.203125 -1.253906 8.671875 -0.722656 7.984375 -0.359375 C 7.296875 0.00390625 6.492188 0.1875 5.578125 0.1875 Z M 5.578125 0.1875 "/></g></g></g><g clip-path="url(#3ded545888)"><g clip-path="url(#b48921e36b)"><path fill="#efff97" d="M 154.308594 467.375 L 369.402344 467.375 L 369.402344 585.285156 L 154.308594 585.285156 Z M 154.308594 467.375 " fill-opacity="1" fill-rule="nonzero"/></g></g><g fill="#000000" fill-opacity="1"><g transform="translate(244.965988, 532.626881)"><g><path d="M 0.96875 0 L 0.96875 -1.3125 L 4.671875 -1.3125 L 4.671875 -11.6875 L 4.453125 -11.75 C 3.847656 -11.445312 3.320312 -11.21875 2.875 -11.0625 C 2.425781 -10.90625 1.847656 -10.753906 1.140625 -10.609375 L 1.140625 -12.0625 C 1.835938 -12.21875 2.523438 -12.421875 3.203125 -12.671875 C 3.890625 -12.921875 4.515625 -13.21875 5.078125 -13.5625 L 6.21875 -13.5625 L 6.21875 -1.3125 L 9.53125 -1.3125 L 9.53125 0 Z M 0.96875 0 "/></g></g></g><g fill="#000000" fill-opacity="1"><g transform="translate(255.076214, 532.626881)"><g><path d="M 6.671875 0.1875 C 5.671875 0.1875 4.773438 -0.0507812 3.984375 -0.53125 C 3.191406 -1.007812 2.5625 -1.769531 2.09375 -2.8125 C 1.625 -3.851562 1.390625 -5.175781 1.390625 -6.78125 C 1.390625 -8.382812 1.625 -9.707031 2.09375 -10.75 C 2.5625 -11.800781 3.191406 -12.566406 3.984375 -13.046875 C 4.773438 -13.523438 5.671875 -13.765625 6.671875 -13.765625 C 7.671875 -13.765625 8.566406 -13.523438 9.359375 -13.046875 C 10.148438 -12.566406 10.773438 -11.800781 11.234375 -10.75 C 11.703125 -9.707031 11.9375 -8.382812 11.9375 -6.78125 C 11.9375 -5.175781 11.703125 -3.851562 11.234375 -2.8125 C 10.773438 -1.769531 10.148438 -1.007812 9.359375 -0.53125 C 8.566406 -0.0507812 7.671875 0.1875 6.671875 0.1875 Z M 6.671875 -1.28125 C 7.847656 -1.28125 8.738281 -1.703125 9.34375 -2.546875 C 9.957031 -3.398438 10.265625 -4.8125 10.265625 -6.78125 C 10.265625 -8.75 9.957031 -10.15625 9.34375 -11 C 8.738281 -11.851562 7.847656 -12.28125 6.671875 -12.28125 C 5.890625 -12.28125 5.234375 -12.097656 4.703125 -11.734375 C 4.171875 -11.378906 3.765625 -10.796875 3.484375 -9.984375 C 3.203125 -9.179688 3.0625 -8.113281 3.0625 -6.78125 C 3.0625 -5.445312 3.203125 -4.375 3.484375 -3.5625 C 3.765625 -2.757812 4.171875 -2.175781 4.703125 -1.8125 C 5.234375 -1.457031 5.890625 -1.28125 6.671875 -1.28125 Z M 6.671875 -1.28125 "/></g></g></g><g fill="#000000" fill-opacity="1"><g transform="translate(268.41429, 532.626881)"><g><path d="M 0.8125 -0.625 C 0.8125 -1.375 0.894531 -1.976562 1.0625 -2.4375 C 1.226562 -2.894531 1.507812 -3.320312 1.90625 -3.71875 C 2.300781 -4.113281 2.929688 -4.625 3.796875 -5.25 L 5.28125 -6.34375 C 5.832031 -6.738281 6.28125 -7.101562 6.625 -7.4375 C 6.976562 -7.78125 7.253906 -8.148438 7.453125 -8.546875 C 7.648438 -8.953125 7.75 -9.40625 7.75 -9.90625 C 7.75 -10.707031 7.535156 -11.3125 7.109375 -11.71875 C 6.679688 -12.125 6.015625 -12.328125 5.109375 -12.328125 C 4.390625 -12.328125 3.75 -12.160156 3.1875 -11.828125 C 2.632812 -11.492188 2.191406 -11.019531 1.859375 -10.40625 L 1.65625 -10.375 L 0.703125 -11.375 C 1.148438 -12.113281 1.75 -12.695312 2.5 -13.125 C 3.25 -13.550781 4.117188 -13.765625 5.109375 -13.765625 C 6.078125 -13.765625 6.878906 -13.597656 7.515625 -13.265625 C 8.148438 -12.941406 8.617188 -12.488281 8.921875 -11.90625 C 9.222656 -11.332031 9.375 -10.664062 9.375 -9.90625 C 9.375 -9.289062 9.25 -8.71875 9 -8.1875 C 8.75 -7.664062 8.390625 -7.171875 7.921875 -6.703125 C 7.460938 -6.242188 6.878906 -5.757812 6.171875 -5.25 L 4.671875 -4.140625 C 4.109375 -3.734375 3.671875 -3.382812 3.359375 -3.09375 C 3.054688 -2.800781 2.835938 -2.515625 2.703125 -2.234375 C 2.566406 -1.960938 2.5 -1.65625 2.5 -1.3125 L 9.375 -1.3125 L 9.375 0 L 0.8125 0 Z M 0.8125 -0.625 "/></g></g></g><g clip-path="url(#fcf5b74dbe)"><g clip-path="url(#b3fff064f0)"><path fill="#efff97" d="M 454.726562 467.375 L 669.820312 467.375 L 669.820312 585.285156 L 454.726562 585.285156 Z M 454.726562 467.375 " fill-opacity="1" fill-rule="nonzero"/></g></g><g fill="#000000" fill-opacity="1"><g transform="translate(545.910058, 532.626881)"><g><path d="M 0.96875 0 L 0.96875 -1.3125 L 4.671875 -1.3125 L 4.671875 -11.6875 L 4.453125 -11.75 C 3.847656 -11.445312 3.320312 -11.21875 2.875 -11.0625 C 2.425781 -10.90625 1.847656 -10.753906 1.140625 -10.609375 L 1.140625 -12.0625 C 1.835938 -12.21875 2.523438 -12.421875 3.203125 -12.671875 C 3.890625 -12.921875 4.515625 -13.21875 5.078125 -13.5625 L 6.21875 -13.5625 L 6.21875 -1.3125 L 9.53125 -1.3125 L 9.53125 0 Z M 0.96875 0 "/></g></g></g><g fill="#000000" fill-opacity="1"><g transform="translate(556.020283, 532.626881)"><g><path d="M 6.671875 0.1875 C 5.671875 0.1875 4.773438 -0.0507812 3.984375 -0.53125 C 3.191406 -1.007812 2.5625 -1.769531 2.09375 -2.8125 C 1.625 -3.851562 1.390625 -5.175781 1.390625 -6.78125 C 1.390625 -8.382812 1.625 -9.707031 2.09375 -10.75 C 2.5625 -11.800781 3.191406 -12.566406 3.984375 -13.046875 C 4.773438 -13.523438 5.671875 -13.765625 6.671875 -13.765625 C 7.671875 -13.765625 8.566406 -13.523438 9.359375 -13.046875 C 10.148438 -12.566406 10.773438 -11.800781 11.234375 -10.75 C 11.703125 -9.707031 11.9375 -8.382812 11.9375 -6.78125 C 11.9375 -5.175781 11.703125 -3.851562 11.234375 -2.8125 C 10.773438 -1.769531 10.148438 -1.007812 9.359375 -0.53125 C 8.566406 -0.0507812 7.671875 0.1875 6.671875 0.1875 Z M 6.671875 -1.28125 C 7.847656 -1.28125 8.738281 -1.703125 9.34375 -2.546875 C 9.957031 -3.398438 10.265625 -4.8125 10.265625 -6.78125 C 10.265625 -8.75 9.957031 -10.15625 9.34375 -11 C 8.738281 -11.851562 7.847656 -12.28125 6.671875 -12.28125 C 5.890625 -12.28125 5.234375 -12.097656 4.703125 -11.734375 C 4.171875 -11.378906 3.765625 -10.796875 3.484375 -9.984375 C 3.203125 -9.179688 3.0625 -8.113281 3.0625 -6.78125 C 3.0625 -5.445312 3.203125 -4.375 3.484375 -3.5625 C 3.765625 -2.757812 4.171875 -2.175781 4.703125 -1.8125 C 5.234375 -1.457031 5.890625 -1.28125 6.671875 -1.28125 Z M 6.671875 -1.28125 "/></g></g></g><g fill="#000000" fill-opacity="1"><g transform="translate(569.35836, 532.626881)"><g><path d="M 3.6875 0 L 2.140625 0 L 7.171875 -12.015625 L 7.109375 -12.203125 L 0.5 -12.203125 L 0.5 -13.5625 L 8.78125 -13.5625 L 8.78125 -12.09375 Z M 3.6875 0 "/></g></g></g><g clip-path="url(#efdb7b7769)"><g clip-path="url(#1f5be41e83)"><path fill="#efff97" d="M 145.613281 296.269531 L 360.707031 296.269531 L 360.707031 414.179688 L 145.613281 414.179688 Z M 145.613281 296.269531 " fill-opacity="1" fill-rule="nonzero"/></g></g><g fill="#000000" fill-opacity="1"><g transform="translate(235.966764, 361.520714)"><g><path d="M 0.96875 0 L 0.96875 -1.3125 L 4.671875 -1.3125 L 4.671875 -11.6875 L 4.453125 -11.75 C 3.847656 -11.445312 3.320312 -11.21875 2.875 -11.0625 C 2.425781 -10.90625 1.847656 -10.753906 1.140625 -10.609375 L 1.140625 -12.0625 C 1.835938 -12.21875 2.523438 -12.421875 3.203125 -12.671875 C 3.890625 -12.921875 4.515625 -13.21875 5.078125 -13.5625 L 6.21875 -13.5625 L 6.21875 -1.3125 L 9.53125 -1.3125 L 9.53125 0 Z M 0.96875 0 "/></g></g></g><g fill="#000000" fill-opacity="1"><g transform="translate(246.076989, 361.520714)"><g><path d="M 6.671875 0.1875 C 5.671875 0.1875 4.773438 -0.0507812 3.984375 -0.53125 C 3.191406 -1.007812 2.5625 -1.769531 2.09375 -2.8125 C 1.625 -3.851562 1.390625 -5.175781 1.390625 -6.78125 C 1.390625 -8.382812 1.625 -9.707031 2.09375 -10.75 C 2.5625 -11.800781 3.191406 -12.566406 3.984375 -13.046875 C 4.773438 -13.523438 5.671875 -13.765625 6.671875 -13.765625 C 7.671875 -13.765625 8.566406 -13.523438 9.359375 -13.046875 C 10.148438 -12.566406 10.773438 -11.800781 11.234375 -10.75 C 11.703125 -9.707031 11.9375 -8.382812 11.9375 -6.78125 C 11.9375 -5.175781 11.703125 -3.851562 11.234375 -2.8125 C 10.773438 -1.769531 10.148438 -1.007812 9.359375 -0.53125 C 8.566406 -0.0507812 7.671875 0.1875 6.671875 0.1875 Z M 6.671875 -1.28125 C 7.847656 -1.28125 8.738281 -1.703125 9.34375 -2.546875 C 9.957031 -3.398438 10.265625 -4.8125 10.265625 -6.78125 C 10.265625 -8.75 9.957031 -10.15625 9.34375 -11 C 8.738281 -11.851562 7.847656 -12.28125 6.671875 -12.28125 C 5.890625 -12.28125 5.234375 -12.097656 4.703125 -11.734375 C 4.171875 -11.378906 3.765625 -10.796875 3.484375 -9.984375 C 3.203125 -9.179688 3.0625 -8.113281 3.0625 -6.78125 C 3.0625 -5.445312 3.203125 -4.375 3.484375 -3.5625 C 3.765625 -2.757812 4.171875 -2.175781 4.703125 -1.8125 C 5.234375 -1.457031 5.890625 -1.28125 6.671875 -1.28125 Z M 6.671875 -1.28125 "/></g></g></g><g fill="#000000" fill-opacity="1"><g transform="translate(259.415065, 361.520714)"><g><path d="M 5.375 0.1875 C 4.050781 0.1875 3.003906 -0.109375 2.234375 -0.703125 C 1.460938 -1.296875 0.960938 -2.113281 0.734375 -3.15625 L 1.921875 -3.703125 L 2.140625 -3.671875 C 2.367188 -2.859375 2.726562 -2.25 3.21875 -1.84375 C 3.71875 -1.445312 4.4375 -1.25 5.375 -1.25 C 6.332031 -1.25 7.0625 -1.46875 7.5625 -1.90625 C 8.0625 -2.34375 8.3125 -2.988281 8.3125 -3.84375 C 8.3125 -4.675781 8.054688 -5.3125 7.546875 -5.75 C 7.035156 -6.1875 6.234375 -6.40625 5.140625 -6.40625 L 3.671875 -6.40625 L 3.671875 -7.734375 L 4.984375 -7.734375 C 5.835938 -7.734375 6.515625 -7.941406 7.015625 -8.359375 C 7.523438 -8.785156 7.78125 -9.382812 7.78125 -10.15625 C 7.78125 -10.894531 7.5625 -11.445312 7.125 -11.8125 C 6.6875 -12.175781 6.070312 -12.359375 5.28125 -12.359375 C 3.914062 -12.359375 2.941406 -11.816406 2.359375 -10.734375 L 2.15625 -10.703125 L 1.265625 -11.671875 C 1.628906 -12.296875 2.15625 -12.800781 2.84375 -13.1875 C 3.53125 -13.570312 4.34375 -13.765625 5.28125 -13.765625 C 6.15625 -13.765625 6.894531 -13.628906 7.5 -13.359375 C 8.113281 -13.085938 8.578125 -12.695312 8.890625 -12.1875 C 9.203125 -11.6875 9.359375 -11.082031 9.359375 -10.375 C 9.359375 -9.707031 9.164062 -9.117188 8.78125 -8.609375 C 8.394531 -8.109375 7.882812 -7.710938 7.25 -7.421875 L 7.25 -7.234375 C 8.144531 -7.015625 8.816406 -6.609375 9.265625 -6.015625 C 9.722656 -5.421875 9.953125 -4.695312 9.953125 -3.84375 C 9.953125 -2.550781 9.566406 -1.554688 8.796875 -0.859375 C 8.023438 -0.160156 6.882812 0.1875 5.375 0.1875 Z M 5.375 0.1875 "/></g></g></g><g clip-path="url(#3e6169edd7)"><g clip-path="url(#f03cb855dd)"><path fill="#efff97" d="M 446.03125 296.269531 L 661.125 296.269531 L 661.125 414.179688 L 446.03125 414.179688 Z M 446.03125 296.269531 " fill-opacity="1" fill-rule="nonzero"/></g></g><g fill="#000000" fill-opacity="1"><g transform="translate(535.785867, 361.520714)"><g><path d="M 0.96875 0 L 0.96875 -1.3125 L 4.671875 -1.3125 L 4.671875 -11.6875 L 4.453125 -11.75 C 3.847656 -11.445312 3.320312 -11.21875 2.875 -11.0625 C 2.425781 -10.90625 1.847656 -10.753906 1.140625 -10.609375 L 1.140625 -12.0625 C 1.835938 -12.21875 2.523438 -12.421875 3.203125 -12.671875 C 3.890625 -12.921875 4.515625 -13.21875 5.078125 -13.5625 L 6.21875 -13.5625 L 6.21875 -1.3125 L 9.53125 -1.3125 L 9.53125 0 Z M 0.96875 0 "/></g></g></g><g fill="#000000" fill-opacity="1"><g transform="translate(545.896092, 361.520714)"><g><path d="M 6.671875 0.1875 C 5.671875 0.1875 4.773438 -0.0507812 3.984375 -0.53125 C 3.191406 -1.007812 2.5625 -1.769531 2.09375 -2.8125 C 1.625 -3.851562 1.390625 -5.175781 1.390625 -6.78125 C 1.390625 -8.382812 1.625 -9.707031 2.09375 -10.75 C 2.5625 -11.800781 3.191406 -12.566406 3.984375 -13.046875 C 4.773438 -13.523438 5.671875 -13.765625 6.671875 -13.765625 C 7.671875 -13.765625 8.566406 -13.523438 9.359375 -13.046875 C 10.148438 -12.566406 10.773438 -11.800781 11.234375 -10.75 C 11.703125 -9.707031 11.9375 -8.382812 11.9375 -6.78125 C 11.9375 -5.175781 11.703125 -3.851562 11.234375 -2.8125 C 10.773438 -1.769531 10.148438 -1.007812 9.359375 -0.53125 C 8.566406 -0.0507812 7.671875 0.1875 6.671875 0.1875 Z M 6.671875 -1.28125 C 7.847656 -1.28125 8.738281 -1.703125 9.34375 -2.546875 C 9.957031 -3.398438 10.265625 -4.8125 10.265625 -6.78125 C 10.265625 -8.75 9.957031 -10.15625 9.34375 -11 C 8.738281 -11.851562 7.847656 -12.28125 6.671875 -12.28125 C 5.890625 -12.28125 5.234375 -12.097656 4.703125 -11.734375 C 4.171875 -11.378906 3.765625 -10.796875 3.484375 -9.984375 C 3.203125 -9.179688 3.0625 -8.113281 3.0625 -6.78125 C 3.0625 -5.445312 3.203125 -4.375 3.484375 -3.5625 C 3.765625 -2.757812 4.171875 -2.175781 4.703125 -1.8125 C 5.234375 -1.457031 5.890625 -1.28125 6.671875 -1.28125 Z M 6.671875 -1.28125 "/></g></g></g><g fill="#000000" fill-opacity="1"><g transform="translate(559.234169, 361.520714)"><g><path d="M 6.46875 0.1875 C 5.507812 0.1875 4.648438 -0.0390625 3.890625 -0.5 C 3.128906 -0.957031 2.519531 -1.707031 2.0625 -2.75 C 1.613281 -3.789062 1.390625 -5.132812 1.390625 -6.78125 C 1.390625 -8.382812 1.613281 -9.707031 2.0625 -10.75 C 2.519531 -11.789062 3.140625 -12.550781 3.921875 -13.03125 C 4.710938 -13.519531 5.613281 -13.765625 6.625 -13.765625 C 8.363281 -13.765625 9.644531 -13.234375 10.46875 -12.171875 L 9.6875 -11.125 L 9.453125 -11.125 C 8.785156 -11.925781 7.84375 -12.328125 6.625 -12.328125 C 5.445312 -12.328125 4.546875 -11.882812 3.921875 -11 C 3.304688 -10.113281 3 -8.695312 3 -6.75 L 3.203125 -6.6875 C 3.566406 -7.457031 4.046875 -8.03125 4.640625 -8.40625 C 5.234375 -8.789062 5.96875 -8.984375 6.84375 -8.984375 C 7.695312 -8.984375 8.4375 -8.800781 9.0625 -8.4375 C 9.695312 -8.070312 10.179688 -7.546875 10.515625 -6.859375 C 10.847656 -6.171875 11.015625 -5.359375 11.015625 -4.421875 C 11.015625 -3.472656 10.828125 -2.648438 10.453125 -1.953125 C 10.085938 -1.265625 9.5625 -0.734375 8.875 -0.359375 C 8.1875 0.00390625 7.382812 0.1875 6.46875 0.1875 Z M 6.46875 -1.25 C 7.375 -1.25 8.078125 -1.519531 8.578125 -2.0625 C 9.085938 -2.601562 9.34375 -3.390625 9.34375 -4.421875 C 9.34375 -5.453125 9.085938 -6.238281 8.578125 -6.78125 C 8.078125 -7.320312 7.375 -7.59375 6.46875 -7.59375 C 5.863281 -7.59375 5.332031 -7.46875 4.875 -7.21875 C 4.425781 -6.96875 4.078125 -6.601562 3.828125 -6.125 C 3.585938 -5.65625 3.46875 -5.085938 3.46875 -4.421875 C 3.46875 -3.753906 3.585938 -3.179688 3.828125 -2.703125 C 4.078125 -2.234375 4.425781 -1.875 4.875 -1.625 C 5.332031 -1.375 5.863281 -1.25 6.46875 -1.25 Z M 6.46875 -1.25 "/></g></g></g><g clip-path="url(#60a9026be9)"><g clip-path="url(#8eaf2abb9b)"><path fill="#efff97" d="M 6.558594 381.765625 L 155.328125 381.765625 L 155.328125 499.675781 L 6.558594 499.675781 Z M 6.558594 381.765625 " fill-opacity="1" fill-rule="nonzero"/></g></g><g fill="#000000" fill-opacity="1"><g transform="translate(64.216687, 447.01699)"><g><path d="M 0.96875 0 L 0.96875 -1.3125 L 4.671875 -1.3125 L 4.671875 -11.6875 L 4.453125 -11.75 C 3.847656 -11.445312 3.320312 -11.21875 2.875 -11.0625 C 2.425781 -10.90625 1.847656 -10.753906 1.140625 -10.609375 L 1.140625 -12.0625 C 1.835938 -12.21875 2.523438 -12.421875 3.203125 -12.671875 C 3.890625 -12.921875 4.515625 -13.21875 5.078125 -13.5625 L 6.21875 -13.5625 L 6.21875 -1.3125 L 9.53125 -1.3125 L 9.53125 0 Z M 0.96875 0 "/></g></g></g><g fill="#000000" fill-opacity="1"><g transform="translate(74.326912, 447.01699)"><g><path d="M 6.671875 0.1875 C 5.671875 0.1875 4.773438 -0.0507812 3.984375 -0.53125 C 3.191406 -1.007812 2.5625 -1.769531 2.09375 -2.8125 C 1.625 -3.851562 1.390625 -5.175781 1.390625 -6.78125 C 1.390625 -8.382812 1.625 -9.707031 2.09375 -10.75 C 2.5625 -11.800781 3.191406 -12.566406 3.984375 -13.046875 C 4.773438 -13.523438 5.671875 -13.765625 6.671875 -13.765625 C 7.671875 -13.765625 8.566406 -13.523438 9.359375 -13.046875 C 10.148438 -12.566406 10.773438 -11.800781 11.234375 -10.75 C 11.703125 -9.707031 11.9375 -8.382812 11.9375 -6.78125 C 11.9375 -5.175781 11.703125 -3.851562 11.234375 -2.8125 C 10.773438 -1.769531 10.148438 -1.007812 9.359375 -0.53125 C 8.566406 -0.0507812 7.671875 0.1875 6.671875 0.1875 Z M 6.671875 -1.28125 C 7.847656 -1.28125 8.738281 -1.703125 9.34375 -2.546875 C 9.957031 -3.398438 10.265625 -4.8125 10.265625 -6.78125 C 10.265625 -8.75 9.957031 -10.15625 9.34375 -11 C 8.738281 -11.851562 7.847656 -12.28125 6.671875 -12.28125 C 5.890625 -12.28125 5.234375 -12.097656 4.703125 -11.734375 C 4.171875 -11.378906 3.765625 -10.796875 3.484375 -9.984375 C 3.203125 -9.179688 3.0625 -8.113281 3.0625 -6.78125 C 3.0625 -5.445312 3.203125 -4.375 3.484375 -3.5625 C 3.765625 -2.757812 4.171875 -2.175781 4.703125 -1.8125 C 5.234375 -1.457031 5.890625 -1.28125 6.671875 -1.28125 Z M 6.671875 -1.28125 "/></g></g></g><g fill="#000000" fill-opacity="1"><g transform="translate(87.664988, 447.01699)"><g><path d="M 0.96875 0 L 0.96875 -1.3125 L 4.671875 -1.3125 L 4.671875 -11.6875 L 4.453125 -11.75 C 3.847656 -11.445312 3.320312 -11.21875 2.875 -11.0625 C 2.425781 -10.90625 1.847656 -10.753906 1.140625 -10.609375 L 1.140625 -12.0625 C 1.835938 -12.21875 2.523438 -12.421875 3.203125 -12.671875 C 3.890625 -12.921875 4.515625 -13.21875 5.078125 -13.5625 L 6.21875 -13.5625 L 6.21875 -1.3125 L 9.53125 -1.3125 L 9.53125 0 Z M 0.96875 0 "/></g></g></g><g clip-path="url(#0c993c8d13)"><g clip-path="url(#11cfc71360)"><path fill="#ffbd59" d="M 246.097656 622.417969 L 563.902344 622.417969 L 563.902344 740.328125 L 246.097656 740.328125 Z M 246.097656 622.417969 " fill-opacity="1" fill-rule="nonzero"/></g></g><g fill="#000000" fill-opacity="1"><g transform="translate(378.917358, 687.667257)"><g><path d="M 10.578125 -13.5625 L 10.578125 -12.203125 L 6.34375 -12.203125 L 6.34375 0 L 4.75 0 L 4.75 -12.203125 L 0.5 -12.203125 L 0.5 -13.5625 Z M 10.578125 -13.5625 "/></g></g></g><g fill="#000000" fill-opacity="1"><g transform="translate(389.992228, 687.667257)"><g><path d="M 5.875 0.1875 C 4.90625 0.1875 4.0625 -0.015625 3.34375 -0.421875 C 2.632812 -0.828125 2.085938 -1.425781 1.703125 -2.21875 C 1.316406 -3.019531 1.125 -3.984375 1.125 -5.109375 C 1.125 -6.242188 1.316406 -7.207031 1.703125 -8 C 2.085938 -8.800781 2.632812 -9.40625 3.34375 -9.8125 C 4.0625 -10.21875 4.90625 -10.421875 5.875 -10.421875 C 6.832031 -10.421875 7.671875 -10.21875 8.390625 -9.8125 C 9.109375 -9.40625 9.660156 -8.800781 10.046875 -8 C 10.429688 -7.207031 10.625 -6.242188 10.625 -5.109375 C 10.625 -3.984375 10.429688 -3.019531 10.046875 -2.21875 C 9.660156 -1.425781 9.109375 -0.828125 8.390625 -0.421875 C 7.671875 -0.015625 6.832031 0.1875 5.875 0.1875 Z M 5.875 -1.15625 C 6.894531 -1.15625 7.675781 -1.476562 8.21875 -2.125 C 8.757812 -2.769531 9.03125 -3.765625 9.03125 -5.109375 C 9.03125 -6.460938 8.757812 -7.460938 8.21875 -8.109375 C 7.675781 -8.753906 6.894531 -9.078125 5.875 -9.078125 C 4.851562 -9.078125 4.066406 -8.753906 3.515625 -8.109375 C 2.972656 -7.460938 2.703125 -6.460938 2.703125 -5.109375 C 2.703125 -3.765625 2.972656 -2.769531 3.515625 -2.125 C 4.066406 -1.476562 4.851562 -1.15625 5.875 -1.15625 Z M 5.875 -1.15625 "/></g></g></g><g fill="#000000" fill-opacity="1"><g transform="translate(401.73493, 687.667257)"><g><path d="M 2.546875 -12.203125 C 2.222656 -12.203125 1.957031 -12.300781 1.75 -12.5 C 1.550781 -12.707031 1.453125 -12.96875 1.453125 -13.28125 C 1.453125 -13.582031 1.550781 -13.832031 1.75 -14.03125 C 1.957031 -14.238281 2.222656 -14.34375 2.546875 -14.34375 C 2.867188 -14.34375 3.128906 -14.238281 3.328125 -14.03125 C 3.523438 -13.832031 3.625 -13.582031 3.625 -13.28125 C 3.625 -12.96875 3.523438 -12.707031 3.328125 -12.5 C 3.128906 -12.300781 2.867188 -12.203125 2.546875 -12.203125 Z M 1.78125 0 L 1.78125 -10.234375 L 3.296875 -10.234375 L 3.296875 0 Z M 1.78125 0 "/></g></g></g><g fill="#000000" fill-opacity="1"><g transform="translate(406.808599, 687.667257)"><g><path d="M 4.078125 0.1875 C 3.347656 0.1875 2.773438 -0.015625 2.359375 -0.421875 C 1.953125 -0.835938 1.75 -1.453125 1.75 -2.265625 L 1.75 -14.34375 L 3.25 -14.34375 L 3.25 -2.359375 C 3.25 -1.929688 3.332031 -1.625 3.5 -1.4375 C 3.664062 -1.25 3.921875 -1.15625 4.265625 -1.15625 C 4.472656 -1.15625 4.6875 -1.191406 4.90625 -1.265625 L 5.03125 -1.21875 L 5.21875 -0.03125 C 5.101562 0.0390625 4.941406 0.09375 4.734375 0.125 C 4.523438 0.164062 4.304688 0.1875 4.078125 0.1875 Z M 4.078125 0.1875 "/></g></g></g><g fill="#000000" fill-opacity="1"><g transform="translate(412.373861, 687.667257)"><g><path d="M 9.75 -4.765625 L 2.71875 -4.765625 C 2.757812 -3.523438 3.054688 -2.613281 3.609375 -2.03125 C 4.160156 -1.445312 4.921875 -1.15625 5.890625 -1.15625 C 6.617188 -1.15625 7.207031 -1.285156 7.65625 -1.546875 C 8.101562 -1.804688 8.453125 -2.21875 8.703125 -2.78125 L 8.890625 -2.78125 L 9.875 -2.1875 C 9.582031 -1.445312 9.109375 -0.863281 8.453125 -0.4375 C 7.804688 -0.0195312 6.953125 0.1875 5.890625 0.1875 C 4.898438 0.1875 4.046875 -0.00390625 3.328125 -0.390625 C 2.617188 -0.773438 2.070312 -1.363281 1.6875 -2.15625 C 1.3125 -2.945312 1.125 -3.929688 1.125 -5.109375 C 1.125 -6.273438 1.328125 -7.253906 1.734375 -8.046875 C 2.140625 -8.847656 2.691406 -9.441406 3.390625 -9.828125 C 4.085938 -10.222656 4.890625 -10.421875 5.796875 -10.421875 C 7.109375 -10.421875 8.128906 -10.050781 8.859375 -9.3125 C 9.597656 -8.570312 9.972656 -7.476562 9.984375 -6.03125 C 9.984375 -5.457031 9.972656 -5.070312 9.953125 -4.875 Z M 8.484375 -6.03125 C 8.460938 -7.113281 8.222656 -7.898438 7.765625 -8.390625 C 7.304688 -8.890625 6.648438 -9.140625 5.796875 -9.140625 C 4.898438 -9.140625 4.195312 -8.890625 3.6875 -8.390625 C 3.175781 -7.898438 2.863281 -7.113281 2.75 -6.03125 Z M 8.484375 -6.03125 "/></g></g></g><g fill="#000000" fill-opacity="1"><g transform="translate(423.281774, 687.667257)"><g><path d="M 6.921875 -1.625 L 7.40625 -0.53125 C 7.164062 -0.289062 6.847656 -0.113281 6.453125 0 C 6.054688 0.125 5.628906 0.1875 5.171875 0.1875 C 3.222656 0.1875 2.25 -0.800781 2.25 -2.78125 L 2.25 -9 L 0.46875 -9 L 0.46875 -10.25 L 2.25 -10.25 L 2.25 -12.40625 L 3.75 -12.65625 L 3.75 -10.25 L 7.046875 -10.25 L 7.046875 -9 L 3.75 -9 L 3.75 -2.921875 C 3.75 -1.742188 4.257812 -1.15625 5.28125 -1.15625 C 5.84375 -1.15625 6.320312 -1.3125 6.71875 -1.625 Z M 6.921875 -1.625 "/></g></g></g><g clip-path="url(#50a1bd1bdf)"><g clip-path="url(#7a0f35ec07)"><path fill="#efff97" d="M 246.097656 84.773438 L 563.902344 84.773438 L 563.902344 143.726562 L 246.097656 143.726562 Z M 246.097656 84.773438 " fill-opacity="1" fill-rule="nonzero"/></g></g><g fill="#000000" fill-opacity="1"><g transform="translate(367.960327, 120.772646)"><g><path d="M 2.046875 0 L 2.046875 -13.5625 L 7.1875 -13.5625 C 8.019531 -13.5625 8.726562 -13.425781 9.3125 -13.15625 C 9.894531 -12.894531 10.332031 -12.519531 10.625 -12.03125 C 10.914062 -11.539062 11.0625 -10.953125 11.0625 -10.265625 C 11.0625 -9.679688 10.898438 -9.148438 10.578125 -8.671875 C 10.265625 -8.191406 9.8125 -7.820312 9.21875 -7.5625 L 9.21875 -7.359375 C 10.125 -7.140625 10.8125 -6.734375 11.28125 -6.140625 C 11.75 -5.554688 11.984375 -4.820312 11.984375 -3.9375 C 11.984375 -2.675781 11.613281 -1.703125 10.875 -1.015625 C 10.132812 -0.335938 9.035156 0 7.578125 0 Z M 7.109375 -7.875 C 7.859375 -7.875 8.441406 -8.066406 8.859375 -8.453125 C 9.273438 -8.847656 9.484375 -9.390625 9.484375 -10.078125 C 9.484375 -10.796875 9.28125 -11.335938 8.875 -11.703125 C 8.476562 -12.066406 7.890625 -12.25 7.109375 -12.25 L 3.640625 -12.25 L 3.640625 -7.875 Z M 7.453125 -1.3125 C 9.390625 -1.3125 10.359375 -2.1875 10.359375 -3.9375 C 10.359375 -5.675781 9.390625 -6.546875 7.453125 -6.546875 L 3.640625 -6.546875 L 3.640625 -1.3125 Z M 7.453125 -1.3125 "/></g></g></g><g fill="#000000" fill-opacity="1"><g transform="translate(381.010871, 120.772646)"><g><path d="M 4.21875 0.1875 C 3.207031 0.1875 2.421875 -0.0703125 1.859375 -0.59375 C 1.296875 -1.113281 1.015625 -1.863281 1.015625 -2.84375 C 1.015625 -3.445312 1.140625 -3.957031 1.390625 -4.375 C 1.640625 -4.800781 2.023438 -5.144531 2.546875 -5.40625 C 3.078125 -5.664062 3.765625 -5.867188 4.609375 -6.015625 C 5.347656 -6.140625 5.910156 -6.273438 6.296875 -6.421875 C 6.691406 -6.578125 6.953125 -6.75 7.078125 -6.9375 C 7.210938 -7.132812 7.28125 -7.378906 7.28125 -7.671875 C 7.28125 -8.140625 7.117188 -8.492188 6.796875 -8.734375 C 6.484375 -8.984375 5.972656 -9.109375 5.265625 -9.109375 C 4.609375 -9.109375 4.039062 -8.976562 3.5625 -8.71875 C 3.09375 -8.46875 2.660156 -8.085938 2.265625 -7.578125 L 2.078125 -7.578125 L 1.34375 -8.625 C 1.769531 -9.175781 2.316406 -9.613281 2.984375 -9.9375 C 3.648438 -10.257812 4.410156 -10.421875 5.265625 -10.421875 C 6.472656 -10.421875 7.363281 -10.15625 7.9375 -9.625 C 8.507812 -9.101562 8.796875 -8.375 8.796875 -7.4375 L 8.796875 -2.015625 C 8.796875 -1.441406 9.035156 -1.15625 9.515625 -1.15625 C 9.679688 -1.15625 9.835938 -1.1875 9.984375 -1.25 L 10.109375 -1.203125 L 10.28125 -0.15625 C 10.175781 -0.0820312 10.03125 -0.0234375 9.84375 0.015625 C 9.664062 0.0546875 9.476562 0.078125 9.28125 0.078125 C 8.71875 0.078125 8.289062 -0.046875 8 -0.296875 C 7.71875 -0.546875 7.535156 -0.910156 7.453125 -1.390625 L 7.265625 -1.40625 C 6.972656 -0.875 6.578125 -0.472656 6.078125 -0.203125 C 5.585938 0.0546875 4.96875 0.1875 4.21875 0.1875 Z M 4.5625 -1.015625 C 5.125 -1.015625 5.613281 -1.144531 6.03125 -1.40625 C 6.445312 -1.664062 6.765625 -2.035156 6.984375 -2.515625 C 7.210938 -2.992188 7.328125 -3.546875 7.328125 -4.171875 L 7.328125 -5.46875 L 7.15625 -5.5 C 6.925781 -5.34375 6.644531 -5.207031 6.3125 -5.09375 C 5.988281 -4.988281 5.53125 -4.894531 4.9375 -4.8125 C 4.34375 -4.726562 3.867188 -4.601562 3.515625 -4.4375 C 3.171875 -4.269531 2.925781 -4.054688 2.78125 -3.796875 C 2.632812 -3.546875 2.5625 -3.226562 2.5625 -2.84375 C 2.5625 -2.25 2.738281 -1.796875 3.09375 -1.484375 C 3.445312 -1.171875 3.9375 -1.015625 4.5625 -1.015625 Z M 4.5625 -1.015625 "/></g></g></g><g fill="#000000" fill-opacity="1"><g transform="translate(391.594149, 120.772646)"><g><path d="M 4.078125 0.1875 C 3.347656 0.1875 2.773438 -0.015625 2.359375 -0.421875 C 1.953125 -0.835938 1.75 -1.453125 1.75 -2.265625 L 1.75 -14.34375 L 3.25 -14.34375 L 3.25 -2.359375 C 3.25 -1.929688 3.332031 -1.625 3.5 -1.4375 C 3.664062 -1.25 3.921875 -1.15625 4.265625 -1.15625 C 4.472656 -1.15625 4.6875 -1.191406 4.90625 -1.265625 L 5.03125 -1.21875 L 5.21875 -0.03125 C 5.101562 0.0390625 4.941406 0.09375 4.734375 0.125 C 4.523438 0.164062 4.304688 0.1875 4.078125 0.1875 Z M 4.078125 0.1875 "/></g></g></g><g fill="#000000" fill-opacity="1"><g transform="translate(397.159411, 120.772646)"><g><path d="M 5.875 0.1875 C 4.96875 0.1875 4.15625 -0.015625 3.4375 -0.421875 C 2.71875 -0.835938 2.148438 -1.441406 1.734375 -2.234375 C 1.328125 -3.035156 1.125 -3.992188 1.125 -5.109375 C 1.125 -6.234375 1.328125 -7.191406 1.734375 -7.984375 C 2.148438 -8.785156 2.71875 -9.390625 3.4375 -9.796875 C 4.15625 -10.210938 4.96875 -10.421875 5.875 -10.421875 C 6.957031 -10.421875 7.816406 -10.21875 8.453125 -9.8125 C 9.097656 -9.40625 9.5625 -8.863281 9.84375 -8.1875 L 8.8125 -7.4375 L 8.625 -7.4375 C 8.34375 -8 7.984375 -8.410156 7.546875 -8.671875 C 7.117188 -8.941406 6.5625 -9.078125 5.875 -9.078125 C 5.238281 -9.078125 4.679688 -8.925781 4.203125 -8.625 C 3.734375 -8.332031 3.363281 -7.890625 3.09375 -7.296875 C 2.832031 -6.703125 2.703125 -5.972656 2.703125 -5.109375 C 2.703125 -4.253906 2.832031 -3.53125 3.09375 -2.9375 C 3.363281 -2.351562 3.734375 -1.910156 4.203125 -1.609375 C 4.679688 -1.304688 5.238281 -1.15625 5.875 -1.15625 C 6.582031 -1.15625 7.171875 -1.316406 7.640625 -1.640625 C 8.109375 -1.960938 8.472656 -2.46875 8.734375 -3.15625 L 8.9375 -3.15625 L 9.921875 -2.578125 C 9.660156 -1.722656 9.1875 -1.046875 8.5 -0.546875 C 7.820312 -0.0546875 6.945312 0.1875 5.875 0.1875 Z M 5.875 0.1875 "/></g></g></g><g fill="#000000" fill-opacity="1"><g transform="translate(407.705587, 120.772646)"><g><path d="M 5.875 0.1875 C 4.90625 0.1875 4.0625 -0.015625 3.34375 -0.421875 C 2.632812 -0.828125 2.085938 -1.425781 1.703125 -2.21875 C 1.316406 -3.019531 1.125 -3.984375 1.125 -5.109375 C 1.125 -6.242188 1.316406 -7.207031 1.703125 -8 C 2.085938 -8.800781 2.632812 -9.40625 3.34375 -9.8125 C 4.0625 -10.21875 4.90625 -10.421875 5.875 -10.421875 C 6.832031 -10.421875 7.671875 -10.21875 8.390625 -9.8125 C 9.109375 -9.40625 9.660156 -8.800781 10.046875 -8 C 10.429688 -7.207031 10.625 -6.242188 10.625 -5.109375 C 10.625 -3.984375 10.429688 -3.019531 10.046875 -2.21875 C 9.660156 -1.425781 9.109375 -0.828125 8.390625 -0.421875 C 7.671875 -0.015625 6.832031 0.1875 5.875 0.1875 Z M 5.875 -1.15625 C 6.894531 -1.15625 7.675781 -1.476562 8.21875 -2.125 C 8.757812 -2.769531 9.03125 -3.765625 9.03125 -5.109375 C 9.03125 -6.460938 8.757812 -7.460938 8.21875 -8.109375 C 7.675781 -8.753906 6.894531 -9.078125 5.875 -9.078125 C 4.851562 -9.078125 4.066406 -8.753906 3.515625 -8.109375 C 2.972656 -7.460938 2.703125 -6.460938 2.703125 -5.109375 C 2.703125 -3.765625 2.972656 -2.769531 3.515625 -2.125 C 4.066406 -1.476562 4.851562 -1.15625 5.875 -1.15625 Z M 5.875 -1.15625 "/></g></g></g><g fill="#000000" fill-opacity="1"><g transform="translate(419.448289, 120.772646)"><g><path d="M 1.78125 0 L 1.78125 -10.234375 L 3.21875 -10.234375 L 3.21875 -8.625 L 3.421875 -8.578125 C 3.753906 -9.179688 4.1875 -9.640625 4.71875 -9.953125 C 5.25 -10.265625 5.894531 -10.421875 6.65625 -10.421875 C 7.882812 -10.421875 8.773438 -10.109375 9.328125 -9.484375 C 9.878906 -8.859375 10.15625 -7.894531 10.15625 -6.59375 L 10.15625 0 L 8.640625 0 L 8.640625 -6.546875 C 8.640625 -7.171875 8.5625 -7.664062 8.40625 -8.03125 C 8.25 -8.40625 8.003906 -8.675781 7.671875 -8.84375 C 7.347656 -9.019531 6.914062 -9.109375 6.375 -9.109375 C 5.445312 -9.109375 4.703125 -8.800781 4.140625 -8.1875 C 3.578125 -7.582031 3.296875 -6.601562 3.296875 -5.25 L 3.296875 0 Z M 1.78125 0 "/></g></g></g><g fill="#000000" fill-opacity="1"><g transform="translate(431.228092, 120.772646)"><g><path d="M 2.046875 4.34375 C 1.703125 4.34375 1.378906 4.3125 1.078125 4.25 C 0.773438 4.195312 0.519531 4.117188 0.3125 4.015625 L 0.578125 2.8125 L 0.75 2.75 C 0.894531 2.820312 1.078125 2.882812 1.296875 2.9375 C 1.523438 3 1.757812 3.03125 2 3.03125 C 2.40625 3.03125 2.742188 2.972656 3.015625 2.859375 C 3.296875 2.742188 3.53125 2.554688 3.71875 2.296875 C 3.914062 2.046875 4.097656 1.695312 4.265625 1.25 L 4.625 0.234375 L 0.515625 -10.234375 L 2.15625 -10.234375 L 5.375 -1.890625 L 5.546875 -1.890625 L 8.671875 -10.234375 L 10.21875 -10.234375 L 5.640625 1.609375 C 5.378906 2.265625 5.085938 2.789062 4.765625 3.1875 C 4.441406 3.582031 4.0625 3.875 3.625 4.0625 C 3.1875 4.25 2.660156 4.34375 2.046875 4.34375 Z M 2.046875 4.34375 "/></g></g></g><g clip-path="url(#f0181827ee)"><path fill="#a6a6a6" d="M 145.613281 261.636719 L 883.6875 261.636719 L 883.6875 298.445312 L 145.613281 298.445312 Z M 145.613281 261.636719 " fill-opacity="1" fill-rule="nonzero"/></g><g clip-path="url(#e9d40553f4)"><path fill="#a6a6a6" d="M 424.980469 143.726562 L 424.980469 622.472656 L 378.695312 622.472656 L 378.695312 143.726562 Z M 424.980469 143.726562 " fill-opacity="1" fill-rule="nonzero"/></g><g clip-path="url(#4b5e781a0f)"><path fill="#a6a6a6" d="M 155.441406 422.316406 L 893.511719 422.316406 L 893.511719 459.125 L 155.441406 459.125 Z M 155.441406 422.316406 " fill-opacity="1" fill-rule="nonzero"/></g></svg>